<svg width="1440" height="167" viewBox="0 0 1440 167" fill="none" xmlns="http://www.w3.org/2000/svg">
<path d="M1444.84 164.706L1396.29 163.457C1347.74 162.207 1250.65 159.708 1153.41 162.527C1056.17 165.146 958.787 173.581 862.111 155.03C765.427 136.777 669.454 91.5397 572.49 83.9221C475.532 76.1057 377.595 105.412 280.356 108.231C183.122 110.85 86.5733 87.4792 38.308 75.4457L-9.96255 63.6109L-8.28663 8.12171e-05L40.2628 1.24956C88.8122 2.49903 185.911 4.99798 283.01 7.49693C380.109 9.99588 477.207 12.4948 574.306 14.9938C671.405 17.4927 768.504 19.9917 865.603 22.4906C962.701 24.9896 1059.8 27.4885 1156.9 29.9875C1254 32.4864 1351.1 34.9854 1399.65 36.2348L1448.2 37.4843L1444.84 164.706Z" fill="#FDFFFC"/>
</svg>
