<svg width="1440" height="130" viewBox="0 0 1440 130" fill="none" xmlns="http://www.w3.org/2000/svg">
<path d="M-1.81361 35.855L46.1388 33.7174C94.0912 31.5799 189.996 27.3047 285.664 17.7156C381.34 8.3251 476.758 -6.87602 573.378 4.89015C669.985 16.3583 767.793 54.7938 863.926 55.634C960.068 56.6729 1054.56 20.6131 1150.22 11.0239C1245.9 1.63344 1342.73 18.217 1391.17 26.8564L1439.59 35.2971L1442.43 98.8664L1394.47 101.004C1346.52 103.142 1250.62 107.417 1154.71 111.692C1058.81 115.967 962.901 120.242 866.997 124.517C771.092 128.792 669.283 107.225 573.378 111.5C477.473 115.775 387.405 107.225 291.5 111.5C195.595 115.775 94.0912 117.862 46.1388 120L-1.81363 129.5L-1.81361 35.855Z" fill="#0197F6"/>
</svg>
