<svg width="31" height="40" viewBox="0 0 31 40" fill="none" xmlns="http://www.w3.org/2000/svg">
<path d="M29.8259 6.84541L16.2634 1.03291C15.7712 0.823664 15.2249 0.823664 14.7327 1.03291L1.17025 6.84541C0.461125 7.14766 0 7.84904 0 8.62404V16.374C0 27.0342 3.94088 33.2652 14.5351 39.3683C14.8335 39.5388 15.1667 39.624 15.5 39.624C15.8333 39.624 16.1665 39.5388 16.4649 39.3683C27.0591 33.2807 31 27.0497 31 16.374V8.62404C31 7.84904 30.5389 7.14766 29.8259 6.84541ZM22.8276 15.6494L15.0776 25.3369C14.7056 25.7942 14.1476 26.0615 13.5625 26.0615C13.5354 26.0615 13.5044 26.0615 13.4811 26.0615C12.865 26.0344 12.2954 25.7167 11.9505 25.2013L8.0755 19.3888C7.48262 18.4975 7.72287 17.2963 8.61412 16.7034C9.49762 16.1144 10.7028 16.3469 11.2995 17.242L13.7059 20.8497L19.7974 13.2314C20.4678 12.3983 21.6884 12.2665 22.5215 12.9292C23.3585 13.5918 23.4902 14.8124 22.8276 15.6494Z" fill="#F5F5F5"/>
</svg>
